<svg xmlns="http://www.w3.org/2000/svg" viewBox="0 0 400 400" width="400" height="400">
  <defs>
    <linearGradient id="g-p15" x1="0" y1="0" x2="1" y2="1">
      <stop offset="0%" stop-color="#f5ffef"/>
      <stop offset="100%" stop-color="#ffffff"/>
    </linearGradient>
    <filter id="shadow-p15" x="-20%" y="-20%" width="140%" height="160%">
      <feDropShadow dx="0" dy="16" stdDeviation="18" flood-color="#7cbd58" flood-opacity="0.18"/>
    </filter>
  </defs>
  <rect width="400" height="400" rx="40" fill="url(#g-p15)"/>
  <circle cx="320" cy="70" r="42" fill="#d6f3c1" opacity="0.55"/>
  <circle cx="80" cy="320" r="54" fill="#7cbd58" opacity="0.10"/>
  <rect x="36" y="36" width="328" height="328" rx="34" fill="#ffffff" filter="url(#shadow-p15)"/>
  <rect x="56" y="56" width="288" height="288" rx="28" fill="#d6f3c1" opacity="0.26"/>
  <path d="M118 248 q10 -78 74 -104 q42 -18 90 8 q-14 14 -20 38 q30 12 30 52 q0 42 -42 42 h-78 q-54 0 -54 -36 z" fill="#ffffff" stroke="#3b6428" stroke-width="8" stroke-linejoin="round"/>
  <circle cx="244" cy="188" r="7" fill="#3b6428"/>
  <path d="M150 162 l16 -26 l18 26 l18 -26 l18 26 l18 -26" fill="none" stroke="#7cbd58" stroke-width="8" stroke-linecap="round"/>
  <path d="M178 250 l10 20 l20 -18 l12 20 l18 -18" fill="none" stroke="#7cbd58" stroke-width="8" stroke-linecap="round"/>
  <path d="M120 224 q-20 18 -20 42" fill="none" stroke="#3b6428" stroke-width="8" stroke-linecap="round"/>
</svg>