<svg xmlns="http://www.w3.org/2000/svg" viewBox="0 0 400 400" width="400" height="400">
  <defs>
    <linearGradient id="g-p17" x1="0" y1="0" x2="1" y2="1">
      <stop offset="0%" stop-color="#eaf7ff"/>
      <stop offset="100%" stop-color="#ffffff"/>
    </linearGradient>
    <filter id="shadow-p17" x="-20%" y="-20%" width="140%" height="160%">
      <feDropShadow dx="0" dy="16" stdDeviation="18" flood-color="#49b8df" flood-opacity="0.18"/>
    </filter>
  </defs>
  <rect width="400" height="400" rx="40" fill="url(#g-p17)"/>
  <circle cx="320" cy="70" r="42" fill="#b9e6ff" opacity="0.55"/>
  <circle cx="80" cy="320" r="54" fill="#49b8df" opacity="0.10"/>
  <rect x="36" y="36" width="328" height="328" rx="34" fill="#ffffff" filter="url(#shadow-p17)"/>
  <rect x="56" y="56" width="288" height="288" rx="28" fill="#b9e6ff" opacity="0.26"/>
  <polygon points="200,102 278,180 200,258 122,180" fill="#ffffff" stroke="#49b8df" stroke-width="12"/>
  <line x1="200" y1="102" x2="200" y2="258" stroke="#49b8df" stroke-width="8"/>
  <line x1="122" y1="180" x2="278" y2="180" stroke="#49b8df" stroke-width="8"/>
  <path d="M200 258 C180 288 226 296 206 326 C188 350 236 352 220 382" fill="none" stroke="#1e5670" stroke-width="7" stroke-linecap="round"/>
  <path d="M205 286 l-18 14 l18 14" fill="none" stroke="#49b8df" stroke-width="6"/>
  <path d="M217 330 l-18 14 l18 14" fill="none" stroke="#49b8df" stroke-width="6"/>
  <circle cx="200" cy="180" r="18" fill="#49b8df" opacity="0.18"/>
</svg>