<svg xmlns="http://www.w3.org/2000/svg" viewBox="0 0 400 400" width="400" height="400">
  <defs>
    <linearGradient id="g-p25" x1="0" y1="0" x2="1" y2="1">
      <stop offset="0%" stop-color="#edfdf8"/>
      <stop offset="100%" stop-color="#ffffff"/>
    </linearGradient>
    <filter id="shadow-p25" x="-20%" y="-20%" width="140%" height="160%">
      <feDropShadow dx="0" dy="16" stdDeviation="18" flood-color="#43c58e" flood-opacity="0.18"/>
    </filter>
  </defs>
  <rect width="400" height="400" rx="40" fill="url(#g-p25)"/>
  <circle cx="320" cy="70" r="42" fill="#c5f2df" opacity="0.55"/>
  <circle cx="80" cy="320" r="54" fill="#43c58e" opacity="0.10"/>
  <rect x="36" y="36" width="328" height="328" rx="34" fill="#ffffff" filter="url(#shadow-p25)"/>
  <rect x="56" y="56" width="288" height="288" rx="28" fill="#c5f2df" opacity="0.26"/>
  <path d="M172 120 h46 a14 14 0 0 1 14 14 v22 h-42 a18 18 0 0 0 -18 18 v44" fill="#ffffff" stroke="#1d6b4b" stroke-width="8" stroke-linejoin="round"/>
  <circle cx="220" cy="188" r="24" fill="#ffffff" stroke="#43c58e" stroke-width="10"/>
  <path d="M166 220 a56 56 0 0 0 90 30" fill="none" stroke="#1d6b4b" stroke-width="10" stroke-linecap="round"/>
  <path d="M122 282 h146" stroke="#1d6b4b" stroke-width="12" stroke-linecap="round"/>
  <path d="M152 252 h72" stroke="#43c58e" stroke-width="10" stroke-linecap="round"/>
  <rect x="146" y="282" width="104" height="18" rx="9" fill="#43c58e" opacity="0.32"/>
</svg>