<svg xmlns="http://www.w3.org/2000/svg" viewBox="0 0 400 400" width="400" height="400">
  <defs>
    <linearGradient id="g-p36" x1="0" y1="0" x2="1" y2="1">
      <stop offset="0%" stop-color="#fff8eb"/>
      <stop offset="100%" stop-color="#ffffff"/>
    </linearGradient>
    <filter id="shadow-p36" x="-20%" y="-20%" width="140%" height="160%">
      <feDropShadow dx="0" dy="16" stdDeviation="18" flood-color="#efb93f" flood-opacity="0.18"/>
    </filter>
  </defs>
  <rect width="400" height="400" rx="40" fill="url(#g-p36)"/>
  <circle cx="320" cy="70" r="42" fill="#ffe2a5" opacity="0.55"/>
  <circle cx="80" cy="320" r="54" fill="#efb93f" opacity="0.10"/>
  <rect x="36" y="36" width="328" height="328" rx="34" fill="#ffffff" filter="url(#shadow-p36)"/>
  <rect x="56" y="56" width="288" height="288" rx="28" fill="#ffe2a5" opacity="0.26"/>
  <path d="M122 122 h156 v98 q0 58 -78 92 q-78 -34 -78 -92 z" fill="#ffffff" stroke="#775614" stroke-width="8"/>
  <path d="M122 122 q20 30 39 0 q20 30 39 0 q20 30 39 0 q20 30 39 0" fill="none" stroke="#efb93f" stroke-width="14" stroke-linecap="round"/>
  <path d="M154 210 q18 -18 40 -6 q22 -12 38 6" fill="none" stroke="#775614" stroke-width="8" stroke-linecap="round"/>
  <circle cx="172" cy="184" r="6" fill="#775614"/>
  <circle cx="226" cy="184" r="6" fill="#775614"/>
  <path d="M168 234 q32 24 64 0" fill="none" stroke="#efb93f" stroke-width="8" stroke-linecap="round"/>
</svg>