<svg xmlns="http://www.w3.org/2000/svg" viewBox="0 0 400 400" width="400" height="400">
  <defs>
    <linearGradient id="g-p37" x1="0" y1="0" x2="1" y2="1">
      <stop offset="0%" stop-color="#fff3eb"/>
      <stop offset="100%" stop-color="#ffffff"/>
    </linearGradient>
    <filter id="shadow-p37" x="-20%" y="-20%" width="140%" height="160%">
      <feDropShadow dx="0" dy="16" stdDeviation="18" flood-color="#ef8f58" flood-opacity="0.18"/>
    </filter>
  </defs>
  <rect width="400" height="400" rx="40" fill="url(#g-p37)"/>
  <circle cx="320" cy="70" r="42" fill="#ffd5be" opacity="0.55"/>
  <circle cx="80" cy="320" r="54" fill="#ef8f58" opacity="0.10"/>
  <rect x="36" y="36" width="328" height="328" rx="34" fill="#ffffff" filter="url(#shadow-p37)"/>
  <rect x="56" y="56" width="288" height="288" rx="28" fill="#ffd5be" opacity="0.26"/>
  <path d="M124 150 l46 -44 l22 38 h16 l22 -38 l46 44 v84 q0 64 -76 86 q-76 -22 -76 -86 z" fill="#ffffff" stroke="#7e4125" stroke-width="8" stroke-linejoin="round"/>
  <path d="M134 154 l36 -34 l18 30 h24 l18 -30 l36 34" fill="#ef8f58" opacity="0.5"/>
  <circle cx="172" cy="196" r="8" fill="#7e4125"/>
  <circle cx="228" cy="196" r="8" fill="#7e4125"/>
  <path d="M180 228 q20 12 40 0" fill="none" stroke="#7e4125" stroke-width="8" stroke-linecap="round"/>
  <path d="M188 218 l12 10 l12 -10" fill="#ef8f58"/>
</svg>