<svg xmlns="http://www.w3.org/2000/svg" viewBox="0 0 400 400" width="400" height="400">
  <defs>
    <linearGradient id="g-p40" x1="0" y1="0" x2="1" y2="1">
      <stop offset="0%" stop-color="#f4ffed"/>
      <stop offset="100%" stop-color="#ffffff"/>
    </linearGradient>
    <filter id="shadow-p40" x="-20%" y="-20%" width="140%" height="160%">
      <feDropShadow dx="0" dy="16" stdDeviation="18" flood-color="#7dbd57" flood-opacity="0.18"/>
    </filter>
  </defs>
  <rect width="400" height="400" rx="40" fill="url(#g-p40)"/>
  <circle cx="320" cy="70" r="42" fill="#d4f0b9" opacity="0.55"/>
  <circle cx="80" cy="320" r="54" fill="#7dbd57" opacity="0.10"/>
  <rect x="36" y="36" width="328" height="328" rx="34" fill="#ffffff" filter="url(#shadow-p40)"/>
  <rect x="56" y="56" width="288" height="288" rx="28" fill="#d4f0b9" opacity="0.26"/>
  <path d="M124 248 q6 -84 78 -104 q44 -12 84 22 q-12 8 -18 28 q30 14 30 52 q0 42 -40 42 h-82 q-52 0 -52 -40 z" fill="#ffffff" stroke="#3c6028" stroke-width="8" stroke-linejoin="round"/>
  <circle cx="246" cy="190" r="7" fill="#3c6028"/>
  <path d="M146 178 l18 -24 l18 24 l18 -24 l18 24" fill="none" stroke="#7dbd57" stroke-width="8" stroke-linecap="round"/>
  <path d="M182 248 l10 22 l22 -18 l12 20" fill="none" stroke="#7dbd57" stroke-width="8" stroke-linecap="round"/>
  <path d="M120 226 q-16 18 -18 38" fill="none" stroke="#3c6028" stroke-width="8" stroke-linecap="round"/>
</svg>