<svg xmlns="http://www.w3.org/2000/svg" viewBox="0 0 400 400" width="400" height="400">
  <defs>
    <linearGradient id="g-p49" x1="0" y1="0" x2="1" y2="1">
      <stop offset="0%" stop-color="#f4fbff"/>
      <stop offset="100%" stop-color="#ffffff"/>
    </linearGradient>
    <filter id="shadow-p49" x="-20%" y="-20%" width="140%" height="160%">
      <feDropShadow dx="0" dy="16" stdDeviation="18" flood-color="#68aee8" flood-opacity="0.18"/>
    </filter>
  </defs>
  <rect width="400" height="400" rx="40" fill="url(#g-p49)"/>
  <circle cx="320" cy="70" r="42" fill="#d1e9ff" opacity="0.55"/>
  <circle cx="80" cy="320" r="54" fill="#68aee8" opacity="0.10"/>
  <rect x="36" y="36" width="328" height="328" rx="34" fill="#ffffff" filter="url(#shadow-p49)"/>
  <rect x="56" y="56" width="288" height="288" rx="28" fill="#d1e9ff" opacity="0.26"/>
  <path d="M126 134 h66 q28 0 42 18 q14 -18 42 -18 h32 v146 h-48 q-26 0 -42 18 q-16 -18 -42 -18 h-92 z" fill="#ffffff" stroke="#2c5f84" stroke-width="8" stroke-linejoin="round"/>
  <path d="M200 152 v144" stroke="#68aee8" stroke-width="8"/>
  <path d="M146 184 h32 M146 212 h44 M224 184 h52 M224 212 h40" stroke="#68aee8" stroke-width="6" stroke-linecap="round" opacity="0.6"/>
</svg>