<svg xmlns="http://www.w3.org/2000/svg" viewBox="0 0 400 400" width="400" height="400">
  <defs>
    <linearGradient id="g-p6" x1="0" y1="0" x2="1" y2="1">
      <stop offset="0%" stop-color="#eef9ff"/>
      <stop offset="100%" stop-color="#ffffff"/>
    </linearGradient>
    <filter id="shadow-p6" x="-20%" y="-20%" width="140%" height="160%">
      <feDropShadow dx="0" dy="16" stdDeviation="18" flood-color="#56c4e7" flood-opacity="0.18"/>
    </filter>
  </defs>
  <rect width="400" height="400" rx="40" fill="url(#g-p6)"/>
  <circle cx="320" cy="70" r="42" fill="#c8ebff" opacity="0.55"/>
  <circle cx="80" cy="320" r="54" fill="#56c4e7" opacity="0.10"/>
  <rect x="36" y="36" width="328" height="328" rx="34" fill="#ffffff" filter="url(#shadow-p6)"/>
  <rect x="56" y="56" width="288" height="288" rx="28" fill="#c8ebff" opacity="0.26"/>
  <rect x="146" y="126" width="108" height="86" rx="20" fill="#ffffff" stroke="#245d72" stroke-width="8"/>
  <rect x="134" y="212" width="132" height="88" rx="24" fill="#ffffff" stroke="#56c4e7" stroke-width="8"/>
  <circle cx="178" cy="164" r="10" fill="#245d72"/><circle cx="222" cy="164" r="10" fill="#245d72"/>
  <path d="M182 188 q18 12 36 0" fill="none" stroke="#56c4e7" stroke-width="8" stroke-linecap="round"/>
  <path d="M200 98 v28" stroke="#245d72" stroke-width="8" stroke-linecap="round"/>
  <circle cx="200" cy="88" r="10" fill="#56c4e7"/>
  <path d="M134 236 h-24 M266 236 h24 M168 300 v28 M232 300 v28" stroke="#245d72" stroke-width="8" stroke-linecap="round"/>
  <path d="M166 246 h68" stroke="#56c4e7" stroke-width="8" stroke-linecap="round"/>
</svg>