<svg xmlns="http://www.w3.org/2000/svg" viewBox="0 0 400 400" width="400" height="400">
  <defs>
    <linearGradient id="g-p7" x1="0" y1="0" x2="1" y2="1">
      <stop offset="0%" stop-color="#f3fff1"/>
      <stop offset="100%" stop-color="#ffffff"/>
    </linearGradient>
    <filter id="shadow-p7" x="-20%" y="-20%" width="140%" height="160%">
      <feDropShadow dx="0" dy="16" stdDeviation="18" flood-color="#7cbf5d" flood-opacity="0.18"/>
    </filter>
  </defs>
  <rect width="400" height="400" rx="40" fill="url(#g-p7)"/>
  <circle cx="320" cy="70" r="42" fill="#d8f3c7" opacity="0.55"/>
  <circle cx="80" cy="320" r="54" fill="#7cbf5d" opacity="0.10"/>
  <rect x="36" y="36" width="328" height="328" rx="34" fill="#ffffff" filter="url(#shadow-p7)"/>
  <rect x="56" y="56" width="288" height="288" rx="28" fill="#d8f3c7" opacity="0.26"/>
  <rect x="124" y="202" width="70" height="70" rx="14" fill="#ffffff" stroke="#3a622b" stroke-width="8"/>
  <rect x="206" y="202" width="70" height="70" rx="14" fill="#ffffff" stroke="#7cbf5d" stroke-width="8"/>
  <rect x="166" y="130" width="70" height="70" rx="14" fill="#ffffff" stroke="#3a622b" stroke-width="8"/>
  <path d="M146 220 h26 M146 236 v26" stroke="#7cbf5d" stroke-width="8" stroke-linecap="round"/>
  <circle cx="242" cy="238" r="10" fill="#3a622b" opacity="0.35"/>
  <path d="M188 148 l18 18 l18 -18 l-18 36 z" fill="#7cbf5d" opacity="0.45"/>
</svg>